<?xml version="1.0" encoding="UTF-8" standalone="no"?>
<svg
   xmlns:dc="http://purl.org/dc/elements/1.1/"
   xmlns:cc="http://creativecommons.org/ns#"
   xmlns:rdf="http://www.w3.org/1999/02/22-rdf-syntax-ns#"
   xmlns:svg="http://www.w3.org/2000/svg"
   xmlns="http://www.w3.org/2000/svg"
   xmlns:sodipodi="http://sodipodi.sourceforge.net/DTD/sodipodi-0.dtd"
   xmlns:inkscape="http://www.inkscape.org/namespaces/inkscape"
   width="32px"
   height="32px"
   viewBox="0 0 32 32"
   version="1.1"
   id="svg2"
   inkscape:version="0.47 r22583"
   sodipodi:docname="cal.svg">
  <metadata
     id="metadata10">
    <rdf:RDF>
      <cc:Work
         rdf:about="">
        <dc:format>image/svg+xml</dc:format>
        <dc:type
           rdf:resource="http://purl.org/dc/dcmitype/StillImage" />
      </cc:Work>
    </rdf:RDF>
  </metadata>
  <defs
     id="defs8">
    <inkscape:perspective
       sodipodi:type="inkscape:persp3d"
       inkscape:vp_x="0 : 16 : 1"
       inkscape:vp_y="0 : 1000 : 0"
       inkscape:vp_z="32 : 16 : 1"
       inkscape:persp3d-origin="16 : 10.666667 : 1"
       id="perspective12" />
    <inkscape:perspective
       id="perspective2845"
       inkscape:persp3d-origin="13.413 : 10.666667 : 1"
       inkscape:vp_z="26.826 : 16 : 1"
       inkscape:vp_y="0 : 1000 : 0"
       inkscape:vp_x="0 : 16 : 1"
       sodipodi:type="inkscape:persp3d" />
  </defs>
  <sodipodi:namedview
     pagecolor="#ffffff"
     bordercolor="#666666"
     borderopacity="1"
     objecttolerance="10"
     gridtolerance="10"
     guidetolerance="10"
     inkscape:pageopacity="0"
     inkscape:pageshadow="2"
     inkscape:window-width="993"
     inkscape:window-height="715"
     id="namedview6"
     showgrid="false"
     inkscape:zoom="7.375"
     inkscape:cx="16"
     inkscape:cy="15.728814"
     inkscape:window-x="0"
     inkscape:window-y="25"
     inkscape:window-maximized="0"
     inkscape:current-layer="svg2" />
  <g
     id="g2848"
     transform="matrix(1.1669922,0,0,0.98813028,0.58576204,-0.02630659)"
     style="fill:#f2f2f2">
    <g
       display="none"
       id="Fondo_1_"
       style="fill:#f2f2f2;display:none">
	<rect
   height="2438.3511"
   width="1000"
   display="inline"
   y="-2043.522"
   x="-736.54102"
   id="Fondo"
   style="fill:#f2f2f2;display:inline" />

</g>
    <g
       display="none"
       id="Guias"
       style="fill:#f2f2f2;display:none">
</g>
    <g
       id="Icons"
       style="fill:#f2f2f2">
	<g
   id="g2823"
   display="none"
   style="opacity:0.2;fill:#f2f2f2;display:none">
		<path
   id="path2825"
   d="m -326.531,-567.002 c -11.282,3.636 -35.885,28.281 -38.51,36.153 -2.621,7.851 12.065,36.154 18.865,37.705 6.793,1.59 56.584,-20.436 58.154,-28.284 1.571,-7.871 -27.227,-49.253 -38.509,-45.574 z"
   display="inline"
   style="fill:#f2f2f2;display:inline" />

		<path
   id="path2827"
   d="m -223.562,-647.16 c -10.498,0.494 -88.546,59.726 -88.034,69.146 0.519,9.423 29.36,46.629 37.729,47.951 8.363,1.301 70.221,-78.341 72.307,-88.814 2.085,-10.496 -11.531,-28.822 -22.002,-28.283 z"
   display="inline"
   style="fill:#f2f2f2;display:inline" />

		<path
   id="path2829"
   d="m 91.372,-933.604 c -10.932,-15.145 -35.498,-16.26 -56.115,-3.016 -7.869,-4.009 -17.023,-7.233 -27.767,-9.215 0,0 -391.393,317.515 -477.854,378.833 0,0 -3.302,7.003 -8.776,18.407 98.109,68.715 86.957,120.568 86.957,120.568 -27.149,-66.916 -95.885,-102.037 -95.905,-102.037 -24.626,50.699 -68.835,139.307 -92.308,172.114 0,0 -0.04,18.015 22.025,29.48 0,0 150.072,-101.024 193.329,-109.639 0,0 23.883,-23.283 60.697,-58.922 -20.121,10.308 -43.197,20.062 -52.827,20.659 -16.772,1.053 -36.153,-39.437 -34.583,-53.776 1.57,-14.338 153.521,-139.574 176.038,-137.984 22.54,1.57 29.875,22.518 30.414,37.725 0.205,6.548 -13.655,26.546 -30.414,48.012 113.26,-108.668 256.184,-243.842 297.086,-273.84 0,0 0.414,-10.661 -3.14,-24.688 17.685,-15.349 23.698,-38.014 13.143,-52.681 z m -615.404,582.596 c 0,0 -2.542,-32.478 -33.638,-43.818 0,0 52.229,-23.635 33.638,43.818 z"
   display="inline"
   style="fill:#f2f2f2;display:inline" />

	</g>

	<path
   id="path2831"
   d="m 1044.515,-617.345 3.333,3.333 c 0,0 17,-13.666 32.5,-11.833 0,0 21,-27.999 50,-37.833 0,0 17.667,-9.834 7.167,-30.667 -10.5,-20.833 -24.327,-12.938 -31.167,-8 -9.583,6.916 -39.771,40.322 -51.5,56.333 0,0 3.5,16.334 -10.333,28.667 z"
   enable-background="new    "
   display="none"
   style="opacity:0.5;fill:#f2f2f2;display:none" />

	<g
   id="g2833"
   style="fill:#f2f2f2">
		<path
   id="path2835"
   d="m 26.754,6.777 c -0.058,-0.1 -0.612,-0.1 -1.515,-0.027 -0.018,5.466 -0.94,23.329 -1.555,23.624 -0.608,0.294 -15.669,-1.147 -20.397,-1.97 0.048,0.691 0.111,1.137 0.188,1.229 0.529,0.635 21.084,2.672 21.797,2.328 0.715,-0.344 1.852,-24.549 1.482,-25.184 z"
   style="fill:#f2f2f2" />

		<path
   id="path2837"
   d="M 22.099,28.787 C 22.814,28.443 23.952,4.238 23.58,3.603 23.458,3.394 21.132,3.62 18.018,4.054 18.02,4.042 18.022,4.031 18.024,4.019 c 0.36,-1.728 1.838,-2.882 3.299,-2.577 0.462,0.097 0.865,0.327 1.191,0.651 l 0.963,-0.92 C 22.983,0.619 22.348,0.223 21.61,0.069 20.214,-0.222 18.815,0.413 17.876,1.596 17.416,1.154 16.855,0.836 16.214,0.703 14.946,0.438 13.674,0.939 12.746,1.922 12.365,1.642 11.931,1.438 11.452,1.338 10.101,1.056 8.744,1.643 7.806,2.756 7.467,2.539 7.096,2.375 6.69,2.29 4.587,1.854 2.462,3.514 1.943,5.999 1.865,6.375 1.831,6.746 1.832,7.108 1.488,7.223 1.251,7.325 1.146,7.412 -0.124,8.471 -0.229,25.824 0.3,26.459 c 0.529,0.635 21.084,2.672 21.799,2.328 z M 3.014,17.062 2.949,14.967 l 17.678,-1.01 0.079,2.547 -17.692,0.558 z m 17.685,1.84 -0.064,2.547 L 2.94,21.006 2.993,18.912 20.699,18.902 z M 7.644,9.183 C 7.941,8.265 8.807,7.724 9.58,7.973 c 0.772,0.25 1.158,1.196 0.861,2.113 -0.297,0.918 -1.163,1.459 -1.936,1.21 C 7.732,11.046 7.347,10.1 7.644,9.183 z m 5.079,-0.635 c 0.297,-0.918 1.163,-1.459 1.936,-1.21 0.771,0.25 1.158,1.196 0.861,2.113 -0.297,0.918 -1.164,1.459 -1.937,1.21 -0.771,-0.25 -1.157,-1.196 -0.86,-2.113 z m 7.014,-1.845 c 0.771,0.25 1.158,1.196 0.861,2.113 C 20.3,9.734 19.434,10.275 18.661,10.025 17.889,9.776 17.503,8.83 17.8,7.912 18.099,6.995 18.965,6.454 19.737,6.703 z M 15.926,2.077 c 0.474,0.1 0.886,0.341 1.218,0.679 L 17.207,2.712 C 17.062,3.046 16.94,3.4 16.862,3.777 16.831,3.93 16.81,4.08 16.79,4.23 c -1.332,0.196 -2.766,0.421 -4.202,0.661 0.011,-0.079 0.023,-0.157 0.04,-0.237 0.36,-1.727 1.837,-2.882 3.298,-2.577 z m -8.06,3.212 c 0.36,-1.728 1.837,-2.881 3.298,-2.576 0.288,0.06 0.551,0.177 0.788,0.332 -0.216,0.417 -0.383,0.875 -0.485,1.367 -0.048,0.23 -0.08,0.459 -0.098,0.687 C 10.145,5.31 8.936,5.529 7.803,5.745 7.815,5.594 7.834,5.441 7.866,5.289 z M 3.104,6.241 C 3.464,4.513 4.942,3.36 6.402,3.665 6.644,3.715 6.869,3.804 7.076,3.922 6.917,4.273 6.788,4.648 6.705,5.047 6.639,5.361 6.605,5.673 6.596,5.981 5.207,6.258 3.977,6.526 3.033,6.767 3.044,6.594 3.067,6.418 3.104,6.241 z m -0.54,3.894 C 2.861,9.217 3.728,8.676 4.5,8.926 5.272,9.175 5.658,10.121 5.361,11.039 5.064,11.956 4.198,12.498 3.425,12.248 2.652,11.998 2.268,11.052 2.564,10.135 z M 20.554,26.312 2.9,25.025 3.052,22.937 20.74,23.771 20.554,26.312 z"
   style="fill:#f2f2f2" />

	</g>

</g>
  </g>
</svg>
